# xmcd
#
# Track frame offsets:
#	150
#	16527
#	32121
#	45704
#	57542
#	73274
#	87275
#	102256
#	115659
#	128237
#
# Disc length: 1874 seconds
#
# Revision: 1
# Processed by: cddbd v1.5.2PL0 Copyright (c) Steve Scherf et al.
# Submitted via: audiograbber 1.83.01
#
DISCID=8207500a
DTITLE=Linda Ronstadt - simply dreams
DYEAR=1977
DGENRE=Country
TTITLE0=rock me on the water 
TTITLE1=crazy arms 
TTITLE2=I won't be hangin' round 
TTITLE3=I still miss someone 
TTITLE4=in my reply 
TTITLE5=I fall to pieces 
TTITLE6=ramblin' 'round 
TTITLE7=birds 
TTITLE8=faithful 
TTITLE9=rescue me 
EXTD=
EXTT0=
EXTT1=
EXTT2=
EXTT3=
EXTT4=
EXTT5=
EXTT6=
EXTT7=
EXTT8=
EXTT9=
PLAYORDER=
